<svg width="0" height="0" class="hidden">
<symbol xmlns="http://www.w3.org/2000/svg" viewBox="0 0 32 32" id="icon-burger">
    <title>burger</title>
    <path d="M0 2h32v4H0zm0 6h32v4H0zm0 6h32v4H0zm0 6h32v4H0zm0 6h32v4H0z"></path>
  </symbol>
    <symbol xmlns="http://www.w3.org/2000/svg" viewBox="0 0 32 32" id="icon-close">
    <title>close</title>
    <path d="M31.708 25.708L22 16l9.708-9.708a1 1 0 0 0 0-1.414L27.122.292a1 1 0 0 0-1.414-.001L16 9.999 6.292.291a.998.998 0 0 0-1.414.001L.292 4.878a1 1 0 0 0 0 1.414L10 16 .292 25.708a.999.999 0 0 0 0 1.414l4.586 4.586a1 1 0 0 0 1.414 0L16 22l9.708 9.708a1 1 0 0 0 1.414 0l4.586-4.586a.999.999 0 0 0 0-1.414z"></path>
  </symbol>
  <symbol xmlns="http://www.w3.org/2000/svg" viewBox="0 0 32 32" id="icon-envelope">
    <title>envelope</title>
    <path d="M29 4H3a3 3 0 0 0-3 3v18a3 3 0 0 0 3 3h26a3 3 0 0 0 3-3V7a3 3 0 0 0-3-3zM2.741 25.99l-.731-.732 8.249-8.248.731.732-8.249 8.248zm26.518 0l-8.249-8.248.731-.732 8.249 8.248-.731.732zM17 19.325V20h-2v-.675L2.003 7.275l1.272-1.272L16 17.801 28.725 6.003l1.272 1.272L17 19.325z"></path>
  </symbol>
  <symbol viewBox="0 -96 480 480" xmlns="http://www.w3.org/2000/svg" id="icon-hanger">
    <title>hanger</title>
    <path d="M475.863 240.992L248 115.273V79.191c20.625-4.21 34.457-23.683 31.64-44.543C276.825 13.79 258.325-1.32 237.325.09 216.32 1.5 200.004 18.94 200 39.992a8 8 0 0 0 16 0c0-13.254 10.746-24 24-24s24 10.746 24 24-10.746 24-24 24a8 8 0 0 0-8 8v43.281L4.137 240.993a7.993 7.993 0 0 0-4.137 7v32a8 8 0 0 0 8 8h464a8 8 0 0 0 8-8v-32a7.993 7.993 0 0 0-4.137-7zm-11.863 31H16v-19.281l224-123.582L464 252.71zm0 0"></path>
  </symbol>
  <symbol xmlns="http://www.w3.org/2000/svg" viewBox="0 0 26 28" id="icon-home">
    <title>home</title>
    <path d="M22 15.5V23c0 .547-.453 1-1 1h-6v-6h-4v6H5c-.547 0-1-.453-1-1v-7.5c0-.031.016-.063.016-.094L13 8l8.984 7.406c.016.031.016.063.016.094zm3.484-1.078l-.969 1.156a.52.52 0 0 1-.328.172h-.047a.49.49 0 0 1-.328-.109L12.999 6.625 2.186 15.641a.531.531 0 0 1-.375.109.52.52 0 0 1-.328-.172l-.969-1.156a.51.51 0 0 1 .063-.703L11.811 4.36c.656-.547 1.719-.547 2.375 0l3.813 3.187V4.5c0-.281.219-.5.5-.5h3c.281 0 .5.219.5.5v6.375l3.422 2.844c.203.172.234.5.063.703z"></path>
  </symbol>
  <symbol xmlns="http://www.w3.org/2000/svg" viewBox="0 0 32 32" id="icon-phone">
    <title>phone</title>
    <path d="M22 20c-2 2-2 4-4 4s-4-2-6-4-4-4-4-6 2-2 4-4-4-8-6-8-6 6-6 6c0 4 4.109 12.109 8 16s12 8 16 8c0 0 6-4 6-6s-6-8-8-6z"></path>
  </symbol>
  <symbol xmlns="http://www.w3.org/2000/svg" viewBox="0 0 32 32" id="icon-whatsapp">
    <title>whatsapp</title>
    <path d="M27.281 4.65C24.287 1.65 20.306 0 16.062 0 7.324 0 .212 7.112.212 15.856c0 2.794.731 5.525 2.119 7.925L.081 32l8.406-2.206a15.858 15.858 0 0 0 7.575 1.931h.006c8.738 0 15.856-7.113 15.856-15.856 0-4.238-1.65-8.219-4.644-11.219zm-11.212 24.4a13.17 13.17 0 0 1-6.713-1.837l-.481-.288-4.987 1.306 1.331-4.863-.313-.5a13.086 13.086 0 0 1-2.019-7.012c0-7.269 5.912-13.181 13.188-13.181 3.519 0 6.831 1.375 9.319 3.862a13.108 13.108 0 0 1 3.856 9.325c-.006 7.275-5.919 13.188-13.181 13.188zm7.225-9.875c-.394-.2-2.344-1.156-2.706-1.288s-.625-.2-.894.2c-.262.394-1.025 1.288-1.256 1.556-.231.262-.462.3-.856.1s-1.675-.619-3.188-1.969c-1.175-1.05-1.975-2.35-2.206-2.744s-.025-.613.175-.806c.181-.175.394-.463.594-.694s.262-.394.394-.662c.131-.262.069-.494-.031-.694s-.894-2.15-1.219-2.944c-.319-.775-.65-.669-.894-.681-.231-.012-.494-.012-.756-.012s-.694.1-1.056.494c-.363.394-1.387 1.356-1.387 3.306s1.419 3.831 1.619 4.1c.2.262 2.794 4.269 6.769 5.981.944.406 1.681.65 2.256.837.95.3 1.813.256 2.494.156.762-.113 2.344-.956 2.675-1.881s.331-1.719.231-1.881c-.094-.175-.356-.275-.756-.475z"></path>
  </symbol>
</svg>